# xmcd
#
# Track frame offsets: 
#        150
#        22715
#        34760
#        48135
#        59212
#        73455
#        85302
#
# Disc length: 1345 seconds
#
# Revision: 0
# Processed by: cddbd v1.5.2PL0 Copyright (c) Steve Scherf et al.
# Submitted via: ExactAudioCopy v0.95b4
#
DISCID=5c053f07
DTITLE=Lisa Miller - Truckasaurus
DYEAR=1993
DGENRE=Country
TTITLE0=Easy Loving
TTITLE1=Broken Plates
TTITLE2=T.L.C.A.S.A.R
TTITLE3=Burn Burn
TTITLE4=Do Right Woman
TTITLE5=Rockinbowlerama
TTITLE6=My Baby's Gone
EXTD=
EXTT0=
EXTT1=
EXTT2=
EXTT3=
EXTT4=
EXTT5=
EXTT6=
PLAYORDER=
